<svg width="15" height="16" viewBox="0 0 15 16" fill="none" xmlns="http://www.w3.org/2000/svg">
<path fill-rule="evenodd" clip-rule="evenodd" d="M7.25219 0.91748C9.17766 0.91748 11.0243 1.68237 12.3858 3.04388C13.7473 4.4054 14.5122 6.25201 14.5122 8.17748V13.0175C14.5122 13.6593 14.2572 14.2748 13.8034 14.7287C13.3495 15.1825 12.734 15.4375 12.0922 15.4375H10.9774C10.6933 15.4374 10.4143 15.3623 10.1685 15.2198C9.92277 15.0773 9.71899 14.8725 9.57781 14.626C8.82277 15.143 7.99109 15.4375 7.25219 15.4375C6.51328 15.4375 5.68161 15.1422 4.92657 14.626C4.78538 14.8725 4.58161 15.0773 4.33585 15.2198C4.0901 15.3623 3.81108 15.4374 3.527 15.4375H2.41219C1.77036 15.4375 1.15483 15.1825 0.700989 14.7287C0.247151 14.2748 -0.0078125 13.6593 -0.0078125 13.0175V8.17748C-0.0078125 6.25201 0.757078 4.4054 2.11859 3.04388C3.48011 1.68237 5.32672 0.91748 7.25219 0.91748ZM7.25219 2.53081C5.7546 2.53081 4.31835 3.12573 3.25939 4.18468C2.20044 5.24364 1.60552 6.67989 1.60552 8.17748V13.0175C1.60552 13.2314 1.69051 13.4366 1.84179 13.5879C1.99307 13.7392 2.19825 13.8241 2.41219 13.8241H3.527L3.69559 13.487C2.94539 12.5569 2.41219 11.3073 2.41219 9.79081C2.41219 9.15355 2.51947 8.52112 2.71307 7.9258C2.76714 7.75967 2.87369 7.61558 3.01669 7.5152C3.15969 7.41483 3.33141 7.36359 3.50603 7.3692C4.10744 7.38565 4.70365 7.25368 5.24194 6.98496C5.78023 6.71624 6.24403 6.31903 6.59233 5.82847C6.66677 5.72261 6.76558 5.63622 6.88043 5.57658C6.99527 5.51694 7.12278 5.48581 7.25219 5.48581C7.38159 5.48581 7.5091 5.51694 7.62395 5.57658C7.73879 5.63622 7.8376 5.72261 7.91204 5.82847C8.26034 6.31903 8.72414 6.71624 9.26243 6.98496C9.80072 7.25368 10.3969 7.38565 10.9983 7.3692C11.173 7.36359 11.3447 7.41483 11.4877 7.5152C11.6307 7.61558 11.7372 7.75967 11.7913 7.9258C11.9849 8.52112 12.0922 9.15274 12.0922 9.79081C12.0922 11.3073 11.559 12.5569 10.8088 13.487L10.9774 13.8241H12.0922C12.3061 13.8241 12.5113 13.7392 12.6626 13.5879C12.8139 13.4366 12.8989 13.2314 12.8989 13.0175V8.17748C12.8989 6.67989 12.3039 5.24364 11.245 4.18468C10.186 3.12573 8.74978 2.53081 7.25219 2.53081ZM7.25219 7.52408C6.39745 8.34603 5.28864 8.85293 4.1078 8.96156C4.05344 9.23464 4.02588 9.51238 4.02552 9.79081C4.02552 11.096 4.5555 12.1076 5.24036 12.7973C5.95023 13.5128 6.76496 13.8241 7.25219 13.8241C7.73941 13.8241 8.55334 13.5128 9.26401 12.7973C9.94887 12.1076 10.4789 11.096 10.4789 9.79081C10.4784 9.51264 10.4509 9.23518 10.3966 8.96237C9.21563 8.85352 8.10681 8.34633 7.25219 7.52408Z" fill="#197fe5"/>
</svg>
