<?xml version="1.0" encoding="UTF-8"?>
<svg id="Layer_1" fill="white" xmlns="http://www.w3.org/2000/svg" viewBox="0 0 839.16 116.34">
  <path d="M97.42,38.95v-.02c-1.61-4.49-3.8-8.77-6.51-12.71-4.01-5.78-9.03-10.65-14.92-14.5-5.01-3.11-10.4-5.63-16.01-7.47-5.29-1.68-10.77-2.79-16.28-3.28-2.13-.23-4.3-.35-6.43-.35H0l1.17,1.08c3.07,2.83,4.83,6.85,4.83,11.03v88.41c0,4.18-1.76,8.2-4.83,11.03l-1.17,1.08h37.32c1.98,0,3.97-.1,5.92-.29,11.55-.92,22.87-4.64,32.72-10.78,9.9-6.43,17.52-16.11,21.46-27.25,2-5.8,3-11.89,3-17.99s-1-12.19-3-17.99ZM86.07,71.27c-1.11,3.68-2.59,7.28-4.41,10.67-2.81,5.23-6.34,10.01-10.5,14.22-3.84,3.76-8.23,6.9-13.03,9.32-6.47,3.09-13.67,4.72-20.86,4.7h-18.98V3.67h18.99c7.14.01,14.39,1.61,20.85,4.69,4.81,2.43,9.2,5.56,13.04,9.32,4.16,4.22,7.69,9,10.5,14.23,6.54,11.81,8.19,25.99,4.52,38.98l-.12.38Z"/>
  <path d="M205.87,28.71c-2.96-5.67-6.91-10.69-11.73-14.9-2.02-1.76-4.17-3.41-6.42-4.89l-3.49-2.03c-.74-.46-1.56-.84-2.36-1.2-.48-.21-.97-.43-1.46-.69-4.68-2.11-9.62-3.51-14.7-4.16-1.86-.27-3.76-.41-5.72-.41s-3.8.14-5.65.41c-5.09.65-10.04,2.05-14.72,4.17-.47.24-.96.46-1.44.68-.8.36-1.63.73-2.36,1.19l-3.52,2.05c-2.23,1.47-4.38,3.11-6.4,4.88-4.82,4.21-8.76,9.22-11.73,14.91-8.88,17.6-8.88,38.62,0,56.23,2.95,5.68,6.9,10.69,11.72,14.9,2,1.75,4.16,3.4,6.42,4.89l3.49,2.03c.74.47,1.58.84,2.38,1.21.48.21.96.43,1.44.68,4.67,2.11,9.62,3.51,14.7,4.16,1.87.27,3.77.41,5.72.41s3.78-.14,5.65-.41c5.09-.65,10.03-2.05,14.72-4.17.47-.24.95-.45,1.42-.67.81-.36,1.64-.74,2.38-1.2l3.52-2.05c2.23-1.48,4.39-3.12,6.4-4.88,4.82-4.21,8.77-9.23,11.73-14.91,8.88-17.6,8.88-38.62,0-56.23ZM195.98,80.47c-1.85,5.02-4.36,9.78-7.46,14.15-1.34,1.89-2.84,3.7-4.42,5.37l-3.35,2.99-2.36,1.64c-5.35,3.53-11.57,5.44-18,5.53l-.38.02c-6.49-.04-12.79-1.93-18.22-5.47-1.08-.69-2.11-1.44-3.06-2.23l-2.69-2.41c-1.62-1.68-3.13-3.5-4.49-5.41-3.11-4.37-5.63-9.14-7.48-14.18-5.71-15.24-5.71-32.04,0-47.28,1.85-5.03,4.36-9.79,7.45-14.15,1.34-1.89,2.84-3.7,4.43-5.37l3.35-3,2.35-1.63c5.36-3.53,11.58-5.45,18.01-5.53l.38-.03c6.48.05,12.78,1.94,18.22,5.48,1.06.68,2.09,1.43,3.06,2.23l2.69,2.4c1.61,1.68,3.12,3.5,4.49,5.41,3.11,4.38,5.62,9.15,7.48,14.18,5.71,15.25,5.71,32.04,0,47.29Z"/>
  <path d="M313.13.42l-1.61,1.37c-3.4,2.86-5.34,7.04-5.34,11.48v100.71L229.65,7.65v92.75c0,4.44,1.94,8.62,5.34,11.48l1.61,1.36h-16.97l1.62-1.36c3.39-2.86,5.34-7.05,5.34-11.49V13.45c0-4.44-1.95-8.62-5.34-11.48l-1.62-1.36h20.1l.11.15,63.28,87.92V13.27c0-4.44-1.95-8.62-5.34-11.48l-1.62-1.37h16.97Z"/>
  <path d="M379.15,113.26h24.28l-3.13-2.9c-1.65-1.52-2.96-3.43-3.79-5.53L355.05,0l-35.01,88.5-.02.07c-1.2,2.99-1.98,6.14-2.33,9.35-.53,6.44,1.44,12.73,5.52,17.72.34.43.82.67,1.41.69.03,0,.06,0,.09,0,1.01,0,2.18-.62,3.14-1.67.11-.12.21-.25.32-.38l.05.05,1.64-2.17.17-.29v-.02s.01-.03.02-.04c.1-.14.19-.27.28-.42.94-1.52,1.35-2.85,1.13-3.64-.09-.3-.26-.53-.52-.66-3.91-1.95-6.93-5.46-8.3-9.6-.79-2.49-.72-5.2.18-7.65l.04-.11-.36-.11h.39s6.09-15.38,6.09-15.38c.98-1.04,5.89-5.56,17.01-5.29,7.41.17,14.58-1.86,20.79-5.87l15.45,39.06c1.45,3.67.52,7.77-2.38,10.46l-.7.65ZM346.07,65.89c-5.22-.32-10.4.77-15.05,3.14l19.06-48.17,15.53,39.29c-5.8,3.9-12.55,5.88-19.54,5.74Z"/>
  <path d="M477.81.61v13.68l-5.34-5.79c-2.84-3.07-6.86-4.83-11.04-4.83h-23.99v97.46c0,4.18,1.76,8.2,4.83,11.03l1.17,1.08h-24.3l1.17-1.08c3.07-2.83,4.84-6.85,4.84-11.03V3.67h-23.99c-4.18,0-8.2,1.76-11.04,4.83l-5.34,5.79V.61h93.03Z"/>
  <path d="M555.65,99.56v13.66l-74.46.02,1.16-1.07c3.07-2.83,4.83-6.85,4.83-11.03V12.71c0-4.18-1.76-8.2-4.83-11.04l-1.16-1.06h74.44v13.68l-5.34-5.79c-2.84-3.07-6.86-4.83-11.04-4.83h-39.77v51.73h16.77c4.18,0,8.2-1.76,11.03-4.83l5.35-5.8v24.29l-5.32-5.77c-2.84-3.07-6.86-4.83-11.04-4.83h-16.79v51.71h39.79c4.18,0,8.19-1.76,11.03-4.83l5.35-5.78Z"/>
  <path d="M655.15,99.55v13.69h-94.02l1.19-1.1c3.07-2.83,4.83-6.86,4.83-11.04V12.74c0-4.18-1.76-8.2-4.83-11.04l-1.19-1.09h24.29l-1.14,1.05c-3.07,2.83-4.83,6.86-4.83,11.04v97.47h59.32c4.18,0,8.21-1.76,11.04-4.83l5.34-5.79Z"/>
  <path d="M752.47,99.55v13.69h-94.02l1.19-1.1c3.07-2.83,4.83-6.86,4.83-11.04V12.74c0-4.18-1.76-8.2-4.83-11.04l-1.19-1.09h24.29l-1.14,1.05c-3.07,2.83-4.83,6.86-4.83,11.04v97.47h59.33c4.18,0,8.2-1.76,11.04-4.83l5.33-5.79Z"/>
  <path d="M814.87,113.26h24.29l-3.13-2.9c-1.66-1.52-2.97-3.43-3.8-5.53L790.77,0l-35,88.5-.03.07c-1.2,2.99-1.98,6.14-2.33,9.35-.52,6.44,1.44,12.73,5.52,17.72.34.43.82.67,1.41.69.03,0,.06,0,.1,0,1,0,2.17-.62,3.13-1.67.11-.12.22-.25.32-.38l.05.05,1.65-2.17.16-.29v-.02s.01-.03.02-.04c.1-.14.2-.27.28-.42.94-1.52,1.35-2.85,1.13-3.64-.08-.3-.26-.53-.52-.66-3.91-1.95-6.93-5.46-8.29-9.6-.79-2.49-.73-5.2.17-7.64l.04-.12-.36-.11h.39s6.09-15.38,6.09-15.38c.98-1.04,5.89-5.55,17.01-5.29,7.4.17,14.58-1.86,20.79-5.87l15.45,39.06c1.45,3.67.52,7.77-2.38,10.46l-.7.65ZM781.8,65.89c-5.23-.32-10.41.77-15.05,3.14l19.05-48.17,15.53,39.29c-5.8,3.9-12.58,5.88-19.53,5.74Z"/>
</svg>