<svg width="278" height="278" viewBox="0 0 278 278" fill="none" xmlns="http://www.w3.org/2000/svg">
<rect width="278" height="278" fill="#121417"/>
<path d="M130.96 73.728C152.917 73.728 169.232 79.248 179.904 90.288C190.576 101.205 195.912 116.907 195.912 137.392C195.912 150.763 193.275 162.477 188 172.536C182.848 182.472 175.304 190.2 165.368 195.72C155.432 201.24 143.411 204 129.304 204C127.464 204 125.011 203.939 121.944 203.816C118.877 203.693 115.688 203.632 112.376 203.632C109.187 203.509 106.243 203.448 103.544 203.448C99.2507 203.448 95.0187 203.509 90.848 203.632C86.6773 203.632 83.304 203.755 80.728 204V200.32C84.8987 200.075 88.0267 199.584 90.112 198.848C92.32 198.112 93.792 196.64 94.528 194.432C95.264 192.224 95.632 188.912 95.632 184.496V93.232C95.632 88.6933 95.264 85.3813 94.528 83.296C93.792 81.088 92.32 79.616 90.112 78.88C88.0267 78.0213 84.8987 77.5307 80.728 77.408V73.728C83.304 73.8507 86.6773 74.0347 90.848 74.28C95.0187 74.4027 99.128 74.4027 103.176 74.28C107.469 74.1573 112.315 74.0347 117.712 73.912C123.109 73.7893 127.525 73.728 130.96 73.728ZM126.36 77.04C120.717 77.04 117.037 78.0827 115.32 80.168C113.603 82.2533 112.744 86.4853 112.744 92.864V184.864C112.744 191.243 113.603 195.475 115.32 197.56C117.16 199.645 120.901 200.688 126.544 200.688C139.915 200.688 150.28 198.296 157.64 193.512C165 188.605 170.152 181.491 173.096 172.168C176.04 162.845 177.512 151.499 177.512 138.128C177.512 124.389 175.856 113.043 172.544 104.088C169.355 95.0107 164.019 88.264 156.536 83.848C149.176 79.3093 139.117 77.04 126.36 77.04Z" fill="#FCFCFC"/>
</svg>
